<svg id="a" xmlns="http://www.w3.org/2000/svg" xmlns:xlink="http://www.w3.org/1999/xlink" viewBox="0 0 873.78 1000"><defs><clipPath id="b"><rect width="873.78" height="1000" style="fill:none;"/></clipPath></defs><g style="clip-path:url(#b);"><path d="M584.86,440.09l-38.63,227.15c-8.01,40.87-34.91,51.92-58.84,51.92h-179.1l75.49-416.04c-75.29-34.45-152.24-56.96-213.52-56.96s-105.57,15.74-137.06,53.54C11.03,326.51,0,359.69,0,399.09,0,517.36,93.02,681.49,252.24,815.41c141.94,118.31,298.1,184.59,411.77,184.59,56.69,0,102.44-17.38,132.47-52.02,23.64-26.81,33.06-61.63,33.06-101,0-114.97-93.75-276.07-244.67-406.89" style="fill:#3d76ff;"/><path d="M263.38,0c-28.47,0-52.05,19.07-58.35,49l-25.19,137.16h225.19l-96.68,532.99h179.06c23.93,0,50.83-11.04,58.79-51.91l81.93-481.08h161.92c28.56,0,52.1-18.97,58.44-48.85L873.78,0H263.38Z" style="fill:#131b37;"/></g></svg>